<?xml version="1.0" encoding="utf-8"?>
<!-- Generator: Adobe Illustrator 21.1.0, SVG Export Plug-In . SVG Version: 6.00 Build 0)  -->
<svg version="1.1" id="Layer_1" xmlns="http://www.w3.org/2000/svg" xmlns:xlink="http://www.w3.org/1999/xlink" x="0px" y="0px"
	 viewBox="0 0 314.1 12.6" enable-background="new 0 0 314.1 12.6" xml:space="preserve">
<g>
	<path fill="#847C77" d="M40.6,0.2c-0.7,0-1.4,0-2.1,0l0,0l0,0l0,0c0,0.1,0.1,0.1,0.1,0.2c0.2,0.3,0.3,0.7,0.3,1.1
		c0,0.6,0,1.1-0.2,1.7c-0.3,1-1.9,5.5-2.2,6.5c-0.2-0.8-0.7-2.1-1.2-3.4c-0.9-2-1.5-3.1-1.9-4.4c-0.1-0.2-0.1-0.4-0.1-0.6
		c-0.1-0.3,0.2-0.7,0.4-1.1h-2.8h-0.1c0,0,0.4,0.4,0.5,0.6s0.3,0.5,0.5,0.9C31.9,1.9,32,2,32,2.1c0.1,0.3,0.3,0.7,0.4,1
		c-0.8,2-1.7,4.6-2.5,6.6c-0.2-0.7-0.7-2.1-1.3-3.4c-1-2.3-1.7-3.5-2-5C26.5,1,26.8,0.6,27,0.2h-2.9c0,0,0.4,0.4,0.5,0.6
		C24.8,1.1,25,1.5,25.3,2c0.4,1.1,0.8,2.1,1.9,4.6c1.2,2.6,1.7,4.6,1.7,5.7l0,0c0.1,0,0.3,0,0.4,0l0,0l0,0c0,0,0,0,0-0.1
		s0-0.1,0.1-0.2c0.1-0.3,0.2-0.5,0.3-0.8c0.2-0.4,0.3-0.9,0.5-1.2l0,0c0.8-2.1,1.6-4.5,2.4-6.5c0.3,0.7,0.7,1.7,1.3,3.1
		c1.1,2.5,1.7,4.9,1.7,5.6v0.1l0,0l0,0c0,0,0.3,0,0.4,0c0,0,0,0,0-0.1c0.2-0.7,0.4-1.4,0.6-2.1c0.3-1,2.6-7.9,2.9-8.5
		c0.3-0.2,0.5-0.6,0.8-1C40.5,0.5,40.6,0.4,40.6,0.2C40.7,0.3,40.6,0.2,40.6,0.2z"/>
	<path fill="#847C77" d="M6.6,12.3H4l0,0c0.5-0.8,0.7-1.3,0.7-2.4V0.5L2.4,0.6c-0.6,0-1.6,1.7-2.3,2.8L0,3.3l0.6-3.1h9.3l0.6,3.1
		h-0.1c-0.7-1-1.7-2.7-2.3-2.7L6,0.5v9.3C6,11,6.1,11.4,6.6,12.3L6.6,12.3z"/>
	<path fill="#847C77" d="M54,6.3C54,2.8,56.8,0,60.1,0s6.1,2.8,6.1,6.3s-2.8,6.3-6.1,6.3C56.8,12.5,54,9.8,54,6.3z M64.7,6.3
		c0-3.4-1.6-6-4.6-6c-2.9,0-4.5,2.6-4.5,6s1.6,5.9,4.5,5.9C63.1,12.2,64.7,9.7,64.7,6.3z"/>
	<path fill="#847C77" d="M108.9,12.3h-8.1l0,0c0.4-0.8,0.6-1.4,0.6-2.3V2.6c0-0.9-0.2-1.4-0.6-2.3l0,0h7.3l0.6,2.6h-0.1
		c-0.8-1-1.7-2.3-2.3-2.3l-3.5-0.1v5.6h2.1c0.6,0,1.1-1,1.6-1.6h0.1v3.4h-0.1c-0.4-0.5-1-1.5-1.6-1.5h-2.1V12l3.6-0.1
		c1.2,0,2.2-1.3,3.1-2.6h0.1L108.9,12.3z"/>
	<path fill="#847C77" d="M122,12.3c0.5-0.8,0.7-1.3,0.7-2.4V2.7c0-1.1-0.1-1.6-0.7-2.4l0,0h2.7l0,0c-0.5,0.8-0.7,1.3-0.7,2.4v7.1
		c0,1.1,0.1,1.6,0.7,2.4l0,0L122,12.3L122,12.3z"/>
	<path fill="#847C77" d="M144.3,12.5c-3.9,0-6.4-2.7-6.4-6.3c0-3.5,2.5-6.3,6.7-6.3c1.9,0,3.4,0.5,4.2,0.8l0.3,2.5H149
		c-1.2-2.1-2.5-3-4.6-3c-3.4,0-5,2.6-5,6c0,3.3,1.4,5.9,4.8,5.9c2.1,0,3.7-0.9,3.7-2.6c0-1.4-0.2-2-0.8-2.7l0,0h2.7l0,0
		c-0.5,0.8-0.7,1.3-0.7,2.6v1.4C148.5,11.3,147,12.5,144.3,12.5z"/>
	<path fill="#847C77" d="M164.2,12.3c0.5-0.8,0.7-1.3,0.7-2.4V2.7c0-1.1-0.1-1.6-0.7-2.4l0,0h2.7l0,0c-0.5,0.8-0.7,1.3-0.7,2.4v3.2
		h6.4V2.7c0-1.1-0.1-1.6-0.7-2.4l0,0h2.7l0,0c-0.5,0.8-0.7,1.3-0.7,2.4v7.1c0,1.1,0.1,1.6,0.7,2.4l0,0H172l0,0
		c0.5-0.8,0.7-1.3,0.7-2.4V6.2h-6.4v3.6c0,1.1,0.1,1.6,0.7,2.4l0,0L164.2,12.3L164.2,12.3z"/>
	<path fill="#847C77" d="M195.2,12.3h-2.7l0,0c0.5-0.8,0.7-1.3,0.7-2.4V0.5L191,0.6c-0.6,0-1.6,1.7-2.3,2.8h-0.1l0.6-3.1h9.3
		l0.6,3.1H199c-0.7-1.1-1.7-2.7-2.3-2.8l-2.2-0.1v9.3C194.5,11,194.6,11.4,195.2,12.3L195.2,12.3z"/>
	<path fill="#847C77" d="M235.5,12.3h-2.7l0,0c0.5-0.8,0.7-1.3,0.7-2.4V2.7c0-1.1-0.1-1.6-0.7-2.4l0,0h7.6l0.6,2.6h-0.1
		c-0.8-1-1.7-2.3-2.3-2.3l-3.7-0.1v5.4h2.2c0.6,0,1.1-1,1.6-1.5h0.1v3.4h-0.1c-0.4-0.5-1-1.5-1.6-1.5h-2.2v3.6
		C234.9,11,235,11.4,235.5,12.3L235.5,12.3z"/>
	<path fill="#847C77" d="M254.2,6.3c0-3.5,2.8-6.3,6.1-6.3s6.1,2.8,6.1,6.3s-2.8,6.3-6.1,6.3C257,12.5,254.2,9.8,254.2,6.3z
		 M264.9,6.3c0-3.4-1.6-6-4.6-6c-2.9,0-4.5,2.6-4.5,6s1.6,5.9,4.5,5.9C263.2,12.2,264.9,9.7,264.9,6.3z"/>
	<path fill="#847C77" d="M281.3,8.4V2.8c0-1.2-0.1-1.6-0.7-2.5l0,0h2.7l0,0c-0.4,0.7-0.7,1.3-0.7,2.5v5.6c0,2.8,1.5,3.8,3.4,3.8
		c2.7,0,3.5-1.9,3.5-4V3c0-1.2-0.2-1.7-1.2-2.7l0,0h2.6l0,0c-0.9,1-1.1,1.5-1.1,2.7v5.2c0,2.4-1,4.4-4.1,4.4
		C283.4,12.6,281.3,11.4,281.3,8.4z"/>
	<path fill="#847C77" d="M313.5,11.8c-0.1-0.1-0.1-0.1-0.2-0.2c-0.1-0.1-0.2-0.2-0.3-0.3c-0.3-0.3-0.6-0.6-0.7-0.9
		c-0.3-0.5-0.5-1-0.8-1.5c-0.4-0.9-0.8-1.7-1.5-2.5c0.1,0,0.3-0.1,0.4-0.1c1.6-0.5,2.3-1.8,2.3-3.2c0-1.7-1.1-2.8-3.7-2.8h-4.2l0,0
		c0.5,0.8,0.7,1.3,0.7,2.4v7.1c0,1.1-0.1,1.6-0.7,2.4l0,0h2.7l0,0c-0.5-0.8-0.7-1.3-0.7-2.4V6.6h1.3c1.2,0.9,1.6,1.9,2.1,3
		c0.2,0.5,0.5,1.1,0.8,1.7c0.2,0.4,0.5,0.7,0.8,1.1h0.4h1.8h0.1v-0.1C313.8,12.1,313.6,12,313.5,11.8z M306.8,0.6c0.9,0,1.6,0,1.9,0
		c2,0,2.6,1,2.6,2.5c0,1.7-0.6,3.1-2.6,3.1h-2V0.6H306.8z"/>
</g>
</svg>
