<?xml version="1.0" encoding="utf-8"?>
<!-- Generator: Adobe Illustrator 22.1.0, SVG Export Plug-In . SVG Version: 6.00 Build 0)  -->
<svg version="1.1" id="Layer_1" xmlns="http://www.w3.org/2000/svg" xmlns:xlink="http://www.w3.org/1999/xlink" x="0px" y="0px"
	 viewBox="0 0 412 16.5100002" style="enable-background:new 0 0 412 16.5100002;" xml:space="preserve">
<style type="text/css">
	.st0{fill:#827C78;}
</style>
<title>Asset 1</title>
<g id="Layer_2_1_">
	<g id="Layer_1-2">
		<path class="st0" d="M53.2799988,0.33h-2.7299995l0,0l0,0c0,0.06,0.0699997,0.13,0.1100006,0.2
			c0.2593575,0.4477505,0.4036598,0.9528159,0.420002,1.47c0.0477104,0.7379107-0.0473595,1.4780974-0.2799988,2.1800003
			c-0.4099998,1.3299999-2.4900017,7.1599998-2.9300003,8.5799999c-0.4321861-1.5086803-0.959919-2.9883356-1.5800018-4.4300003
			c-0.950943-1.8367743-1.7632103-3.7420864-2.4300003-5.6999998c-0.0699997-0.28-0.1300011-0.5599999-0.1800003-0.86
			C43.7060204,1.2502977,43.8910255,0.751125,44.2099991,0.34h-3.7799988
			C40.6995621,0.5867426,40.9379921,0.8654709,41.1399994,1.17c0.1599998,0.28,0.4199982,0.66,0.6599998,1.17
			c0.0744591,0.1532347,0.1412086,0.3100972,0.2000008,0.47l0.5299988,1.3600001l-3.2400017,8.6400003
			c-0.4602242-1.5310946-1.0351868-3.0253258-1.7200012-4.4700003c-1.3400002-3-2.2900009-4.5500002-2.6100006-6.5599999
			C34.9839859,1.2568387,35.1691055,0.7538819,35.4900017,0.34h-3.7800026
			C31.9808521,0.5883174,32.2224236,0.8667929,32.4300003,1.17c0.3323517,0.5198333,0.6168518,1.0687503,0.8499985,1.64
			c0.5400009,1.4000001,1,2.7000003,2.5499992,5.9999995C37.0181923,11.1585312,37.7543106,13.7094955,38,16.3299999l0,0h0.5200005
			c0.0053864-0.0263939,0.0053864-0.053606,0-0.0799999l0.0800018-0.2099991L39,15
			c0.2200012-0.5600004,0.4399986-1.1199999,0.6100006-1.6400003l0,0c1-2.71,2.1599998-5.8400002,3.1699982-8.5900002
			c0.4000015,1,0.9199982,2.1900001,1.7599983,4.0500002c1.1096992,2.2986155,1.8456116,4.7595367,2.1800003,7.2900009v0.1800003
			l0,0l0,0h0.5200005c0,0,0-0.0599995,0-0.0799999c0.2900009-0.9099998,0.5699997-1.8199997,0.8499985-2.7399998
			C48.5200005,12.2799997,51.6100006,3.1600001,52,2.3399999c0.2342453-0.5653274,0.5735741-1.0811057,1-1.52l0.4599991-0.47
			L53.2799988,0.33z"/>
		<path class="st0" d="M8.6800003,16.1299992H5.1799998l0,0c0.6633787-0.9282885,0.9720449-2.063612,0.8699999-3.1999998V0.71
			L3.1700001,0.8C2.3800001,0.82,1.1,3,0.17,4.4299998L0,4.3600001l0.82-4H13l0.8500004,4l-0.1800003,0.0700002
			C12.7399998,3,11.4700003,0.82,10.6700001,0.8L7.8200002,0.71v12.1800003
			c-0.1031508,1.1350098,0.2017732,2.2696104,0.8600001,3.1999998V16.1299992z"/>
		<path class="st0" d="M70.8300018,8.25c0-4.4182777,3.5817184-8,8-8s8,3.581722,8,8s-3.5817184,8-8,8
			S70.8300018,12.6682777,70.8300018,8.25z M84.8300018,8.25c0-4.4499998-2.1200027-7.8200002-6-7.8200002s-6,3.3699999-6,7.8200002
			S75,16,78.8199997,16S84.8300018,12.7200003,84.8300018,8.25z"/>
		<path class="st0" d="M142.8399963,16.1299992h-10.6100006l0,0c0.5552063-0.9022007,0.8494415-1.9406528,0.8500061-3V3.3499999
			c0.0020599-1.0597131-0.2923584-2.0988722-0.8500061-3l0,0h9.5299988l0.8399963,3.46l-0.1699982,0.0599999
			c-1.0800018-1.27-2.2299957-3-3-3L134.8699951,0.67V8h2.7200012c0.8000031,0,1.4900055-1.3000002,2.0700073-2h0.1799927v4.3999996
			h-0.1799927c-0.5599976-0.6400003-1.2700043-1.9200001-2.0700073-1.9200001h-2.7200012v7.3899994l4.7100067-0.1499996
			c1.5500031-0.0699997,2.8500061-1.6900005,4-3.4400005l0.1799927,0.0699997L142.8399963,16.1299992z"/>
		<path class="st0" d="M160.0599976,16.0900002c0.6558228-0.9315166,0.9605103-2.0652189,0.8600006-3.1999998V3.5599999
			c0.1007233-1.1316755-0.2040863-2.2623098-0.8600006-3.1900001l0,0h3.5l0,0
			c-0.6583405,0.9265513-0.9633942,2.0580931-0.8600006,3.1900001v9.3299999
			c-0.1031494,1.1350107,0.201767,2.2696104,0.8600006,3.2000008l0,0H160.0599976z"/>
		<path class="st0" d="M189.2899933,16.4599991c-4.3749542,0.2021332-8.0854034-3.180604-8.2875366-7.5555553
			c-0.0103912-0.224678-0.0112-0.4496965-0.0024567-0.6744442C181,3.6299996,184.3099976,0,189.7299957,0
			c1.8881683,0.0014973,3.7608948,0.3401459,5.5299988,1l0.4299927,3.2799997l-0.1699982,0.0599999
			c-1.5800018-2.76-3.2400055-3.95-6-3.95c-4.4299927,0-6.5,3.4400001-6.5,7.8200006s1.7500153,7.79,6.2700043,7.79
			c2.8099976,0,4.8099976-1.1700001,4.8099976-3.4400005c0-1.8999996-0.2100067-2.6599998-1-3.5799999V9h3.5200043l0,0
			c-0.7009735,0.9824772-1.0078583,2.1921825-0.8600006,3.3900003v1.7699995
			C193.928299,15.6412964,191.6456909,16.4527302,189.2899933,16.4599991z"/>
		<path class="st0" d="M215.4199982,16.0900002c0.6465302-0.9358473,0.9502869-2.0661345,0.8600006-3.1999998V3.5599999
			c0.0904388-1.1307516-0.2134399-2.2579353-0.8600006-3.1900001l0,0h3.5l0,0
			c-0.6583405,0.9265513-0.9633942,2.0580931-0.8600006,3.1900001V7.75h8.3500061V3.5599999
			c0.1007233-1.1316755-0.2040863-2.2623098-0.8600006-3.1900001l0,0h3.5l0,0
			c-0.6523743,0.9296958-0.9600525,2.0578253-0.8699951,3.1900001v9.3299999
			c-0.0898895,1.1352825,0.2176666,2.2665062,0.8699951,3.2000008l0,0h-3.5l0,0
			c0.6558228-0.9315166,0.9605103-2.0652189,0.8600006-3.1999998V8.1899996h-8.3500061v4.6999998
			c-0.1031494,1.1350107,0.201767,2.2696104,0.8600006,3.2000008l0,0H215.4199982z"/>
		<path class="st0" d="M256,16.1299992h-3.5l0,0c0.6633759-0.9282885,0.9720459-2.0636129,0.8699951-3.1999998V0.71L250.5,0.8
			c-0.8000031,0-2.0800018,2.2-3,3.6300004l-0.1699982-0.0700002l0.8200073-4h12.1999969l0.8500061,4l-0.1799927,0.0700002
			C260.0599976,3,258.7900085,0.82,258,0.8l-2.8600006-0.09v12.1800003C255.03685,14.0250111,255.3417664,15.1596107,256,16.0900002
			V16.1299992z"/>
		<path class="st0" d="M308.9299927,16.1299992h-3.5l0,0c0.6422119-0.9114447,0.9463501-2.0183754,0.8599854-3.1300001V3.5
			c0.0906372-1.1120305-0.2138672-2.220396-0.8599854-3.1300001l0,0h9.9100037l0.7600098,3.46l-0.2000122,0.0599999
			c-1-1.27-2.2000122-3-3-3L308.0599976,0.67V7.75H311c0.7999878,0,1.4899902-1.29,2.0499878-2H313.25v4.4099998h-0.2000122
			c-0.5400085-0.6700001-1.25-1.9400005-2.0499878-1.9400005h-2.9400024V13
			C307.9577942,14.1145897,308.2672729,15.2280216,308.9299927,16.1299992z"/>
		<path class="st0" d="M333.4200134,8.25c0-4.4182777,3.5817261-8,8-8s8,3.581722,8,8s-3.5817261,8-8,8
			S333.4200134,12.6682777,333.4200134,8.25z M347.4200134,8.25c0-4.4499998-2.1199951-7.8200002-6-7.8200002
			s-6,3.3699999-6,7.8200002s2.1000061,7.7800007,6,7.7800007S347.4200134,12.7200003,347.4200134,8.25z"/>
		<path class="st0" d="M369,11.0500002V3.6600001c0.1028748-1.1489525-0.2054138-2.297122-0.8699951-3.24l0,0h3.5l0,0
			c-0.6250305,0.9605659-0.9263916,2.0959029-0.8599854,3.24V11c0,3.7200003,1.9400024,5,4.5100098,5
			c3.480011,0,4.5799866-2.4899998,4.5799866-5.2299995V4c0.1144714-1.3796418-0.4715881-2.7245517-1.5600281-3.5799999l0,0
			h3.4299927l0,0C380.7301636,1.3294375,380.2123413,2.6535709,380.3299866,4v6.7800007
			c0,3.0900002-1.3399963,5.7399998-5.4500122,5.7399998C371.6900024,16.5100002,369,14.9399996,369,11.0500002z"/>
		<path class="st0" d="M411.1499939,15.5100002l-0.2600098-0.2399998c-0.1099854-0.0900002-0.2200012-0.1999998-0.3500061-0.3299999
			c-0.361908-0.3409271-0.677887-0.7275076-0.9400024-1.1499996c-0.3662109-0.6497192-0.6999512-1.3172064-1-2
			c-0.5059814-1.1989279-1.1793213-2.3200798-2-3.3299999l0.5400085-0.1199999
			c1.8835449-0.5399027,3.1497498-2.3026705,3.0599976-4.2600002c0-2.25-1.4200134-3.74-4.8999939-3.74h-5.5299988l0,0
			c0.6500854,0.9307721,0.9575195,2.058063,0.8699951,3.1900001v9.3299999
			c0.0873718,1.135047-0.2199402,2.2654409-0.8699951,3.2000008l0,0h3.5l0,0
			c-0.6582336-0.9303923-0.9631348-2.064991-0.8599854-3.1999998V8.6000004h1.6700134
			c1.2554932,1.0718403,2.2130432,2.4496202,2.7799988,4c0.3099976,0.6899996,0.6499939,1.4099998,1.0899963,2.1800003
			c0.3140564,0.508419,0.6865845,0.9782887,1.1099854,1.3999996H412v-0.0799999
			C411.690094,15.9446955,411.4038696,15.7460327,411.1499939,15.5100002z M402.4299927,0.78c1.230011,0,2.1400146,0,2.5499878,0
			c2.6300049,0,3.4100037,1.3300002,3.4100037,3.3c0,2.1800003-0.7999878,4.1000004-3.3900146,4.1000004h-2.5700073
			L402.4299927,0.78z"/>
	</g>
</g>
</svg>
