<?xml version="1.0" encoding="utf-8"?>
<!-- Generator: Adobe Illustrator 21.1.0, SVG Export Plug-In . SVG Version: 6.00 Build 0)  -->
<svg version="1.1" id="Layer_1" xmlns="http://www.w3.org/2000/svg" xmlns:xlink="http://www.w3.org/1999/xlink" x="0px" y="0px"
	 viewBox="0 0 314.1000061 12.6000004" enable-background="new 0 0 314.1000061 12.6000004" xml:space="preserve">
<g>
	<path fill="#847C77" d="M40.5999985,0.2c-0.7000008,0-1.4000015,0-2.0999985,0l0,0l0,0l0,0c0,0.1,0.0999985,0.1,0.0999985,0.2
		c0.2000008,0.3,0.2999992,0.7,0.2999992,1.1c0,0.5999999,0,1.0999999-0.2000008,1.7
		c-0.2999992,0.9999998-1.9000015,5.5-2.2000008,6.5c-0.2000008-0.8000002-0.7000008-2.0999999-1.2000008-3.4000001
		c-0.9000015-2-1.5-3.0999999-1.9000015-4.4000001c-0.0999985-0.2-0.0999985-0.4-0.0999985-0.6
		c-0.0999985-0.3,0.2000008-0.7,0.4000015-1.1h-2.7999992h-0.1000004c0,0,0.3999996,0.4,0.5,0.6s0.2999992,0.5,0.5,0.9
		C31.8999996,1.9,32,2,32,2.0999999c0.0999985,0.3,0.2999992,0.7,0.4000015,1c-0.7999992,2-1.7000008,4.5999999-2.5,6.5999999
		C29.7000008,9,29.2000008,7.5999999,28.6000023,6.2999997c-1-2.3-1.7000008-3.5-2-5C26.5,1,26.7999992,0.6,27,0.2h-2.8999996
		c0,0,0.3999996,0.4,0.5,0.6C24.7999992,1.1,25,1.5,25.2999992,2c0.3999996,1.0999999,0.7999992,2.0999999,1.8999996,4.5999999
		c1.2000008,2.5999999,1.7000008,4.5999999,1.7000008,5.6999993l0,0c0.1000004,0,0.2999992,0,0.3999996,0l0,0l0,0
		c0,0,0,0,0-0.1000004s0-0.1000004,0.1000004-0.1999998c0.1000004-0.3000002,0.2000008-0.5,0.2999992-0.8000002
		c0.2000008-0.3999996,0.2999992-0.8999996,0.5-1.1999998l0,0c0.7999992-2.0999999,1.6000004-4.5,2.3999996-6.5
		c0.2999992,0.6999998,0.7000008,1.6999998,1.2999992,3.0999999c1.0999985,2.4999995,1.7000008,4.9000001,1.7000008,5.5999999
		v0.1000004l0,0l0,0c0,0,0.2999992,0,0.4000015,0c0,0,0,0,0-0.1000004c0.2000008-0.6999998,0.4000015-1.3999996,0.5999985-2.1000004
		c0.2999992-1,2.5999985-7.9000001,2.9000015-8.5c0.2999992-0.2,0.5-0.6,0.7999992-1C40.5,0.5,40.5999985,0.4,40.5999985,0.2
		C40.7000008,0.3,40.5999985,0.2,40.5999985,0.2z"/>
	<path fill="#847C77" d="M6.5999999,12.3000002H4l0,0C4.5,11.5,4.6999998,11,4.6999998,9.8999996V0.5L2.4000001,0.6
		c-0.6,0-1.6,1.7000002-2.3,2.8000002L0,3.3L0.6,0.2h9.3000002L10.500001,3.3h-0.1000004c-0.6999998-1-1.6999998-2.7-2.3000002-2.7
		L6,0.5v9.3000002C6,11,6.0999999,11.3999996,6.5999999,12.3000002L6.5999999,12.3000002z"/>
	<path fill="#847C77" d="M54,6.3000002C54,2.8,56.7999992,0,60.0999985,0s6.0999985,2.8,6.0999985,6.3000002
		s-2.7999992,6.3000002-6.0999985,6.3000002C56.7999992,12.5,54,9.8000002,54,6.3000002z M64.6999969,6.3000002
		c0-3.4000001-1.5999985-6-4.5999985-6c-2.9000015,0-4.5,2.5999999-4.5,6s1.5999985,5.9000006,4.5,5.9000006
		C63.0999985,12.1999998,64.6999969,9.6999998,64.6999969,6.3000002z"/>
	<path fill="#847C77" d="M108.9000015,12.3000002h-8.0999985l0,0C101.2000046,11.5,101.4000015,10.9000006,101.4000015,10V2.5999999
		c0-0.9-0.1999969-1.4-0.5999985-2.3l0,0h7.3000031l0.5999985,2.5999999h-0.0999985c-0.8000031-1-1.6999969-2.3-2.3000031-2.3
		l-3.5-0.1v5.5999999h2.0999985C105.5,6.0999999,106,5.0999999,106.5,4.5h0.0999985v3.4000001H106.5
		c-0.4000015-0.5-1-1.5-1.5999985-1.5h-2.0999985V12l3.5999985-0.1000004c1.1999969,0,2.1999969-1.3000002,3.0999985-2.6000004
		h0.0999985L108.9000015,12.3000002z"/>
	<path fill="#847C77" d="M122,12.3000002C122.5,11.5,122.6999969,11,122.6999969,9.8999996V2.7
		c0-1.1-0.0999985-1.6-0.6999969-2.4000001l0,0h2.6999969l0,0c-0.5,0.8-0.6999969,1.3-0.6999969,2.4000001v7.1000004
		c0,1.1000004,0.0999985,1.6000004,0.6999969,2.4000006l0,0L122,12.3000002L122,12.3000002z"/>
	<path fill="#847C77" d="M144.3000031,12.5c-3.8999939,0-6.3999939-2.6999998-6.3999939-6.3000002
		c0-3.5,2.5-6.3000002,6.6999969-6.3000002c1.8999939,0,3.3999939,0.5,4.1999969,0.8l0.3000031,2.5H149
		c-1.1999969-2.0999999-2.5-3-4.6000061-3c-3.3999939,0-5,2.5999999-5,6c0,3.3000002,1.3999939,5.9000006,4.8000031,5.9000006
		c2.1000061,0,3.6999969-0.8999996,3.6999969-2.6000004c0-1.3999996-0.1999969-2-0.8000031-2.6999998l0,0h2.6999969l0,0
		c-0.5,0.8000002-0.6999969,1.3000002-0.6999969,2.5999994v1.3999996C148.5,11.3000002,147,12.5,144.3000031,12.5z"/>
	<path fill="#847C77" d="M164.1999969,12.3000002c0.5-0.8000002,0.6999969-1.3000002,0.6999969-2.4000006V2.7
		c0-1.1-0.1000061-1.6-0.6999969-2.4000001l0,0h2.6999969l0,0c-0.5,0.8-0.6999969,1.3-0.6999969,2.4000001v3.2h6.3999939V2.7
		c0-1.1-0.1000061-1.6-0.6999969-2.4000001l0,0h2.6999969l0,0c-0.5,0.8-0.6999969,1.3-0.6999969,2.4000001v7.1000004
		c0,1.1000004,0.1000061,1.6000004,0.6999969,2.4000006l0,0H172l0,0c0.5-0.8000002,0.6999969-1.3000002,0.6999969-2.3999996
		V6.1999998h-6.3999939v3.5999994c0,1.1000004,0.1000061,1.6000004,0.6999969,2.3999996l0,0L164.1999969,12.3000002
		L164.1999969,12.3000002z"/>
	<path fill="#847C77" d="M195.1999969,12.3000002H192.5l0,0C193,11.5,193.1999969,11,193.1999969,9.8999996V0.5L191,0.6
		c-0.6000061,0-1.6000061,1.7000002-2.3000031,2.8000002h-0.1000061l0.6000061-3.0999999H198.5l0.6000061,3.0999999H199
		c-0.6999969-1.0999999-1.6999969-2.7-2.3000031-2.8l-2.1999969-0.1v9.3000002
		C194.5,11,194.6000061,11.3999996,195.1999969,12.3000002L195.1999969,12.3000002z"/>
	<path fill="#847C77" d="M235.5,12.3000002h-2.6999969l0,0C233.3000031,11.5,233.5,11,233.5,9.8999996V2.7
		c0-1.1-0.1000061-1.6-0.6999969-2.4000001l0,0h7.6000061l0.6000061,2.5999999h-0.1000061c-0.8000031-1-1.6999969-2.3-2.3000031-2.3
		l-3.6999969-0.1v5.4000001h2.1999969c0.6000061,0,1.1000061-1,1.6000061-1.5h0.1000061v3.4000001h-0.1000061
		c-0.3999939-0.5-1-1.5-1.6000061-1.5h-2.1999969v3.5999994C234.8999939,11,235,11.3999996,235.5,12.3000002L235.5,12.3000002z"/>
	<path fill="#847C77" d="M254.1999969,6.3000002C254.1999969,2.8000002,257,0,260.2999878,0s6.1000061,2.8,6.1000061,6.3000002
		s-2.7999878,6.3000002-6.1000061,6.3000002C257,12.5,254.1999969,9.8000002,254.1999969,6.3000002z M264.8999939,6.3000002
		c0-3.4000001-1.6000061-6-4.6000061-6c-2.8999939,0-4.5,2.5999999-4.5,6s1.6000061,5.9000006,4.5,5.9000006
		C263.2000122,12.1999998,264.8999939,9.6999998,264.8999939,6.3000002z"/>
	<path fill="#847C77" d="M281.2999878,8.3999996V2.8c0-1.2-0.1000061-1.6-0.7000122-2.5l0,0h2.7000122l0,0
		c-0.3999939,0.7-0.7000122,1.3-0.7000122,2.5v5.5999994c0,2.8000002,1.5,3.8000002,3.3999939,3.8000002
		c2.7000122,0,3.5-1.8999996,3.5-4V3c0-1.2-0.2000122-1.7-1.2000122-2.7l0,0h2.6000061l0,0
		c-0.8999939,1-1.1000061,1.5-1.1000061,2.7v5.1999998c0,2.4000006-1,4.4000006-4.1000061,4.4000006
		C283.3999939,12.6000004,281.2999878,11.3999996,281.2999878,8.3999996z"/>
	<path fill="#847C77" d="M313.5,11.8000002c-0.1000061-0.1000004-0.1000061-0.1000004-0.2000122-0.1999998
		C313.1999817,11.5,313.0999756,11.4000006,313,11.3000002c-0.2999878-0.3000002-0.6000061-0.6000004-0.7000122-0.8999996
		c-0.2999878-0.5-0.5-1-0.7999878-1.5c-0.3999939-0.8999996-0.7999878-1.6999998-1.5-2.5
		c0.1000061,0,0.2999878-0.0999999,0.3999939-0.0999999c1.6000061-0.5,2.2999878-1.7999997,2.2999878-3.2
		c0-1.7-1.1000061-2.8-3.7000122-2.8h-4.2000122l0,0c0.5,0.8,0.7000122,1.3,0.7000122,2.4000001v7.1000004
		c0,1.1000004-0.1000061,1.6000004-0.7000122,2.3999996l0,0h2.7000122l0,0c-0.5-0.8000002-0.7000122-1.3000002-0.7000122-2.3999996
		V6.5999999h1.2999878C309.2999573,7.5,309.6999512,8.5,310.1999512,9.6000004c0.2000122,0.5,0.5,1.1000004,0.7999878,1.6999998
		c0.2000122,0.3999996,0.5,0.6999998,0.7999878,1.1000004h0.3999939h1.7999878h0.1000061v-0.1000004
		C313.7999878,12.1000004,313.6000061,12,313.5,11.8000002z M306.7999878,0.6c0.8999939,0,1.6000061,0,1.8999939,0
		c2,0,2.6000061,1,2.6000061,2.5c0,1.7000003-0.6000061,3.0999999-2.6000061,3.0999999h-2V0.6H306.7999878z"/>
</g>
</svg>
