<svg xmlns="http://www.w3.org/2000/svg" viewBox="0 0 4.79 10.13"><defs><style>.cls-1{fill:#847c77;}</style></defs><title>Asset 2</title><g id="Layer_2" data-name="Layer 2"><g id="Layer_1-2" data-name="Layer 1"><g id="GgDxI0"><path class="cls-1" d="M1,7.58c0-.66,0-1.33,0-2C1,5.23.9,5.08.54,5.12S0,5,0,4.59a4.39,4.39,0,0,0,0-.46c0-.76,0-.91.72-.91.36,0,.34-.24.32-.37A3.88,3.88,0,0,1,1,2.2,2,2,0,0,1,3.07,0c.41,0,.83,0,1.25,0s.44.12.43.41c0,.06,0,.12,0,.18,0,1.15,0,1.16-1.12,1.26-.3,0-.45.16-.45.46,0,.06,0,.12,0,.18,0,.73,0,.73.74.73,1.09,0,.84.29.84,1.19,0,.64-.16.7-1,.68-.4,0-.54.12-.54.53,0,1.31,0,2.62,0,3.93,0,.42-.13.59-.56.56a11.87,11.87,0,0,0-1.2,0C1.13,10.13,1,10,1,9.71,1,9,1,8.29,1,7.58Z"/></g></g></g></svg>