<?xml version="1.0" encoding="utf-8"?>
<!-- Generator: Adobe Illustrator 21.1.0, SVG Export Plug-In . SVG Version: 6.00 Build 0)  -->
<svg version="1.1" id="Layer_1" xmlns="http://www.w3.org/2000/svg" xmlns:xlink="http://www.w3.org/1999/xlink" x="0px" y="0px"
	 viewBox="0 0 10.1199999 10.1199999" enable-background="new 0 0 10.1199999 10.1199999" xml:space="preserve">
<title>Asset 1</title>
<g id="Layer_2">
	<g id="Layer_1-2">
		<g id="tpFHtQ">
			<path fill="#847C77" d="M10.1099997,5c0,0.71,0,1.4200001,0,2.1300001
				c0.011816,1.6071053-1.2814217,2.9195004-2.8885269,2.9313164c-0.0371628,0.0002728-0.074327-0.0001659-0.1114731-0.0013161H3
				c-1.6006685,0.0553675-2.9431512-1.1973457-2.9985192-2.7980146C0.0007664,7.2413297,0.0002728,7.2206664,0,7.1999998
				c0-1.4266667,0-2.8499999,0-4.2699995c-0.0232544-1.5959336,1.2516539-2.9085448,2.8475873-2.9317992
				C2.8983986-0.0025395,2.9492204-0.0019396,3,0c1.3733335,0,2.7633338,0,4.1700001,0
				c1.6070547-0.0173405,2.9238882,1.2713778,2.9412289,2.878433C10.1116657,2.9189594,10.1112566,2.9594905,10.1100006,3
				C10.1199999,3.72,10.1099997,4.3800001,10.1099997,5z M5.0599999,9.3500004c0.71,0,1.4200001,0,2.1300001,0
				C8.3662491,9.366622,9.3332624,8.4265585,9.349884,7.250309c0.0002365-0.0167685,0.0002756-0.0335398,0.0001163-0.0503092
				c0-1.4199996,0-2.8400002,0-4.2600002c0.0165825-1.1652027-0.9145594-2.1232285-2.079762-2.1398108
				C7.2568269,0.799998,7.243413,0.799935,7.23,0.8c-1.4333334-0.0266667-2.8666668-0.0266667-4.3000002,0
				C1.7703212,0.7833776,0.8167408,1.7100079,0.8001183,2.8696866C0.7998779,2.8864567,0.7998385,2.903229,0.8,2.9200001
				c0,1.4333334,0,2.8700004,0,4.3099999C0.7991658,8.4008436,1.7476456,9.3506756,2.918489,9.35151
				C2.9456663,9.3515291,2.9728417,9.3510256,3,9.3500004H5.0599999z"/>
			<path fill="#847C77" d="M5.1199999,2.3599999c1.4964275,0.0281069,2.6867371,1.2639863,2.6586304,2.7604139
				c-0.0281072,1.496428-1.2639866,2.6867371-2.7604141,2.6586304S2.3314791,6.515058,2.3595858,5.01863
				C2.3597026,5.0124197,2.3598404,5.0062094,2.3599999,5c0.0327609-1.490809,1.267858-2.6727905,2.7586672-2.6400297
				C5.1191111,2.3599801,5.1195555,2.3599899,5.1199999,2.3599999z M7,5.0799999
				c0.0165548-1.076828-0.8429661-1.9631901-1.9197941-1.9797451S3.1170158,3.9432209,3.1004608,5.0200491
				S3.9434268,6.9832392,5.0202546,6.999794C5.0335021,6.9999976,5.046751,7.0000663,5.0599999,7
				C6.1107564,6.9692874,6.9584007,6.1303816,7,5.0799999z"/>
		</g>
	</g>
</g>
</svg>
