<svg xmlns="http://www.w3.org/2000/svg" viewBox="0 0 10.12 10.12"><defs><style>.cls-1{fill:#847c77;}</style></defs><title>Asset 1</title><g id="Layer_2" data-name="Layer 2"><g id="Layer_1-2" data-name="Layer 1"><g id="tpFHtQ"><path class="cls-1" d="M10.11,5c0,.71,0,1.42,0,2.13a2.91,2.91,0,0,1-3,2.93H3A2.9,2.9,0,0,1,0,7.2Q0,5.06,0,2.93A2.89,2.89,0,0,1,3,0Q5.06,0,7.17,0a2.91,2.91,0,0,1,2.94,3C10.12,3.72,10.11,4.38,10.11,5ZM5.06,9.35c.71,0,1.42,0,2.13,0A2.13,2.13,0,0,0,9.35,7.2q0-2.13,0-4.26A2.11,2.11,0,0,0,7.23.8Q5.08.76,2.93.8A2.1,2.1,0,0,0,.8,2.92q0,2.15,0,4.31A2.12,2.12,0,0,0,3,9.35Z"/><path class="cls-1" d="M5.12,2.36A2.71,2.71,0,1,1,2.36,5,2.7,2.7,0,0,1,5.12,2.36ZM7,5.08A1.95,1.95,0,1,0,5.06,7,2,2,0,0,0,7,5.08Z"/></g></g></g></svg>