<svg version="1.1" id="Layer_1" xmlns="http://www.w3.org/2000/svg" xmlns:xlink="http://www.w3.org/1999/xlink" x="0px" y="0px"
	 viewBox="0 0 28.7 28.7" enable-background="new 0 0 28.7 28.7" xml:space="preserve">
<g>
	<g>
		<path fill-rule="evenodd" clip-rule="evenodd" fill="#AF976D" d="M6.2,0.4c0,0,0-0.2,0.2-0.2c4-0.3,9.4-0.1,13.7,0
			c0.8,0,1.7-0.1,2.3,0c0,0,0.1,0.2,0.2,0.2c0.5,0,0.6,0.1,0.9,0.2c0.3,0.1,0.6,0.1,0.9,0.2c0.2,0.1,0.3,0.4,0.5,0.5
			c0.1,0,0.4-0.1,0.5,0c0.3,0.4,1.1,1.2,1.6,1.9c0.1,0.1,0.4,0.3,0.5,0.5c0,0.1-0.1,0.4,0,0.5c0.2,0.2,0.4,0.4,0.5,0.7
			c0,0.1-0.1,0.4,0,0.5c0.3,0.2,0.1,0.5,0.2,0.9c0,0.2,0.2,0.2,0.2,0.5c0.4,3.3,0,5.7,0,9.8c0,1.9,0.2,4.3-0.2,6.3
			c-0.1,0.6-0.2,1.2-0.5,1.6c-0.1,0.1-0.2,0.6-0.2,0.7c-0.2,0.2-0.3,0.5-0.5,0.7c-0.1,0.1-0.4,0.1-0.5,0.2c-0.1,0.1,0.1,0.4,0,0.5
			c-0.3,0.3-0.7,0.4-1.2,0.7c-0.1,0.1,0,0.2-0.2,0.2c0,0-0.2,0-0.2,0c-0.3,0.2-0.5,0.6-0.7,0.7c-0.2,0.1-0.8,0.1-1.2,0.2
			c-1.9,0.5-6.2,0.2-8.8,0.2c-2.7,0-6.6,0.4-9.1-0.2c-0.4-0.1-1.3-0.4-1.6-0.7c-0.2-0.1-0.3-0.4-0.5-0.5c-0.4-0.3-0.9-0.5-1.2-0.7
			c-0.2-0.2-0.1-0.5-0.2-0.7c-0.1-0.1-0.4-0.1-0.5-0.2c-0.1-0.1-0.3-0.8-0.5-1.2c0,0-0.2-0.9-0.2-0.9c-0.3-0.2-0.4-1.6-0.5-2.6
			c-0.2-3.2,0-7.8,0-11.2c0-1.5,0-2.7,0.2-4c0.1-0.6,0.4-1,0.5-1.4c0-0.3,0.4-0.8,0.7-1.2C1.9,2.7,2.2,2.4,2.7,2
			c0.2-0.2,0.3-0.6,0.5-0.7c0.3-0.2,0.6-0.1,0.9-0.2C4.2,1,4,0.9,4.3,0.9c0.3,0,0.8-0.3,1.4-0.5C5.8,0.4,6,0.4,6.2,0.4z M25.2,5.3
			c-0.1-0.1,0.1-0.4,0-0.5c-0.1-0.1-0.3-0.3-0.5-0.5c-0.2-0.2-0.9-0.9-0.9-0.9c-0.1,0-0.6-0.1-1.2-0.2c0,0,0-0.2,0-0.2
			c0-0.1-0.6,0-0.7,0c-0.2,0-0.2-0.2-0.2-0.2c-1.4-0.2-4.3,0-7.2,0c-3,0-6.6-0.2-8.1,0.2c-1.9,0.5-2.6,1.5-3,2.3
			C3.3,5.4,3.1,5.6,3.1,5.8C3.1,6,2.9,5.9,2.9,6c-0.3,1.1,0.2,2.5,0,3.7c2.9-0.4,6.6,0.7,8.1-0.2c0.1-0.1,0.3-0.4,0.5-0.5
			c1.1-0.5,3.1-0.7,4.4-0.5c0.8,0.1,1.5,0.9,2.8,1.2c2,0.3,4.3-0.2,7,0C25.7,8.5,25.9,5.8,25.2,5.3z M2.9,12.3
			c0.4,4-0.9,10.1,0.9,12.1c0.3,0.4,1.3,1.2,1.6,1.2c0.2,0,0.1,0.2,0.2,0.2C6.5,26.1,8.2,26,9.9,26c1.4,0,3,0,4.4,0
			c2.2,0,7.9,0.5,8.6-0.5c0.1-0.1,0.4,0,0.5,0c0,0,0-0.2,0-0.2c0.1-0.1,0.4,0.1,0.5,0c0.4-0.2,1.7-1.9,1.6-1.9
			c0.3-0.8,0.2-1.7,0.2-2.6c0.1-3.1-0.1-5.4,0-8.6c-1.7,0-3.4,0-5.1,0c0.7,1.4,0.5,4,0.2,4.9c-0.1,0.3-0.1,0.5-0.2,0.7
			c-0.4,0.7-0.7,1.4-1.2,1.9c-1.6,1.7-4.2,2.5-6.8,1.9c-0.3-0.1-0.5-0.2-0.7-0.2c-0.3-0.1-0.3,0-0.5-0.2c-0.1-0.1-0.4,0.1-0.5,0
			c-0.1-0.1-0.3-0.3-0.5-0.5c-1-0.7-1.9-1.8-2.3-2.8c-0.7-1.7-0.6-3.3,0-5.6C6.5,12.3,4.7,12.3,2.9,12.3z M12.4,13.2
			c-0.3,0.3-0.6,1-0.7,1.4c-0.3,2.4,1.5,3.5,3.3,3.3c1.5-0.2,2.6-2.1,2.1-3.3c-0.2-0.5-0.4-1.1-0.7-1.4c-0.3-0.3-0.8-0.5-0.9-0.7
			c0,0-1.4-0.2-1.2-0.2v0.2C13.3,12.6,12.8,12.8,12.4,13.2z"/>
		<path fill-rule="evenodd" clip-rule="evenodd" fill="#AF976D" d="M23,4.8c0.3,0.7,0.2,2.3,0,3c-1,0-2,0-3,0c0-1,0-2,0-3
			C20.7,4.5,22.4,4.5,23,4.8z"/>
	</g>
</g>
</svg>
