<svg version="1.1" id="Layer_1" xmlns="http://www.w3.org/2000/svg" xmlns:xlink="http://www.w3.org/1999/xlink" x="0px" y="0px"
	 viewBox="0 0 26.8 19.7" enable-background="new 0 0 26.8 19.7" xml:space="preserve">
<g id="_x36_6NF0F_1_">
	<g>
		<path fill="#AF976D" d="M26.8,0c0,6.6,0,13.1,0,19.7c-8.9,0-17.8,0-26.8,0C0,13.2,0,6.7,0,0C8.9,0,17.8,0,26.8,0z M13.4,14.5
			c-3.6-3-7.1-5.9-10.8-8.9c0,4,0,7.7,0,11.5c7.3,0,14.4,0,21.6,0c0-3.8,0-7.6,0-11.5C20.5,8.7,17,11.6,13.4,14.5z M23.6,2.5
			c-7,0-13.6,0-20.5,0C6.7,5.5,10,8.2,13.4,11C16.7,8.2,20,5.5,23.6,2.5z"/>
	</g>
</g>
</svg>
