<svg version="1.1" id="Layer_1" xmlns="http://www.w3.org/2000/svg" xmlns:xlink="http://www.w3.org/1999/xlink" x="0px" y="0px"
	 viewBox="0 0 22.7 29.2" enable-background="new 0 0 22.7 29.2" xml:space="preserve">
<g id="xlywt4_3_">
	<g>
		<path fill="#AF976D" d="M22.7,10.9c0,0.2-0.1,0.5-0.1,0.7c-0.1,1.2-0.4,2.3-0.8,3.4c-0.4,1.1-1,2.2-1.7,3.1
			c-0.8,1-1.7,1.8-2.9,2.3c-1.1,0.5-2.2,0.8-3.5,0.7c-0.5,0-0.9-0.1-1.4-0.2c-0.5-0.1-0.9-0.3-1.3-0.6c-0.5-0.3-1-0.7-1.5-1
			c-0.1,0-0.1-0.1-0.2-0.1c-0.1,0.2-0.1,0.5-0.1,0.7c-0.3,1.4-0.6,2.9-1.1,4.2c-0.4,1.1-0.8,2.1-1.5,3.1c-0.5,0.7-1,1.3-1.6,1.7
			c0,0-0.1,0-0.1,0.1c0-0.1,0-0.2-0.1-0.3c-0.2-1.3-0.2-2.7-0.1-4c0.1-0.9,0.2-1.7,0.3-2.6c0.3-1.5,0.7-3,1.1-4.6
			c0.3-1,0.5-1.9,0.7-2.9C7,14.5,7,14.2,7.1,13.9c0-0.1,0-0.2,0-0.3c-0.5-1-0.6-2.1-0.5-3.3C6.6,9.7,6.8,9.2,7,8.7
			C7.3,8,7.6,7.4,8.2,7c0.7-0.5,1.5-0.7,2.3-0.4c0.4,0.1,0.8,0.3,1.1,0.6c0.3,0.3,0.5,0.7,0.5,1.1c0.1,0.6,0,1.2-0.1,1.8
			c-0.2,0.8-0.4,1.6-0.7,2.4c-0.2,0.8-0.5,1.6-0.7,2.4c-0.1,0.5-0.2,1-0.1,1.5c0.1,0.8,0.5,1.3,1.2,1.6c1.4,0.6,2.8,0.4,4-0.6
			c0.7-0.6,1.2-1.3,1.6-2.1c0.6-1.1,0.9-2.3,1.1-3.6c0.1-0.7,0.2-1.5,0.1-2.2c0-1.1-0.2-2.3-0.7-3.3c-0.4-0.8-0.9-1.4-1.5-2
			c-0.6-0.5-1.3-0.9-2-1.1c-0.5-0.2-1.1-0.3-1.7-0.4c-1.8-0.2-3.6,0.2-5.2,1.1C6.6,4.4,5.7,5.1,5,6C4.4,6.8,3.9,7.6,3.6,8.5
			c-0.3,1.1-0.4,2.2-0.3,3.3C3.4,12.4,3.6,13,4,13.5c0.1,0.2,0.3,0.5,0.4,0.7c0.3,0.6,0.4,1.2,0.1,1.9c-0.1,0.3-0.2,0.5-0.4,0.8
			c-0.1,0-0.2-0.1-0.3-0.1c-0.8-0.2-1.5-0.5-2.1-1.1c-0.4-0.4-0.7-0.8-1-1.3c-0.4-0.7-0.5-1.4-0.6-2.2c0-0.2,0-0.4-0.1-0.6
			c0-0.1,0-0.1,0-0.2c0-0.5,0-1,0-1.5c0-0.1,0-0.1,0-0.2c0-0.3,0.1-0.6,0.1-0.9C0.5,7,1.3,5.3,2.6,3.8c1-1.1,2.1-1.9,3.4-2.5
			C7.5,0.6,9,0.1,10.6,0c0.1,0,0.2,0,0.2,0c0.5,0,1,0,1.5,0c0.1,0,0.1,0,0.2,0c0.8,0,1.5,0.2,2.3,0.3c1.5,0.3,2.9,0.9,4.1,1.8
			c1.2,0.8,2.1,1.9,2.7,3.1c0.6,1.1,0.9,2.3,1,3.6c0,0.1,0,0.2,0,0.4C22.7,9.8,22.7,10.3,22.7,10.9z"/>
	</g>
</g>
</svg>
