<svg version="1.1" id="Layer_1" xmlns="http://www.w3.org/2000/svg" xmlns:xlink="http://www.w3.org/1999/xlink" x="0px" y="0px"
	 viewBox="0 0 32.1 26.5" enable-background="new 0 0 32.1 26.5" xml:space="preserve">
<g>
	<g>
		<path fill-rule="evenodd" clip-rule="evenodd" fill="#AF976D" d="M8.8,26.5c0-0.1-0.2-0.1-0.3-0.1c-1.8-0.1-3.5-0.4-5-0.9
			c-1.4-0.5-2.8-1.2-3.5-2c4.1,0.5,7.3-1,9.6-2.8c-3.3-0.2-5.5-2.2-6.2-4.6c0.8,0.2,2.2,0.2,2.7-0.3C3,15.1,1.2,13,0.9,9.4
			c0.8,0.3,1.8,0.6,2.7,0.8C3.8,9.6,3,9.4,2.6,9C1.3,7.5,0.2,3.7,2,1.3c3.1,3.8,7.3,6.5,13.7,6.9C15,3.4,17.6,0.7,21.5,0
			c0.5,0,1,0,1.4,0c0.4,0.2,1.6,0.3,2.2,0.7C25.9,1,26.6,2,27.4,2.1c1.4,0.1,2.4-1.2,3.8-1.3c-0.4,0.9-1,2-1.8,2.7
			c-0.2,0.2-1.1,0.4-0.7,0.7C29.9,4,31,3.6,32.1,3.3c-0.5,0.5-0.8,1.1-1.3,1.7c-0.7,0.7-1.8,1.1-2,1.8c-0.2,0.6,0,1.5,0,2.2
			c-0.3,4.7-2.6,9.1-5.5,11.9c-3,3-7,5.1-12.2,5.5C10.3,26.5,9.6,26.5,8.8,26.5z"/>
	</g>
</g>
</svg>
