<?xml version="1.0" encoding="utf-8"?>
<!-- Generator: Adobe Illustrator 21.1.0, SVG Export Plug-In . SVG Version: 6.00 Build 0)  -->
<svg version="1.1" id="Layer_1" xmlns="http://www.w3.org/2000/svg" xmlns:xlink="http://www.w3.org/1999/xlink" x="0px" y="0px"
	 viewBox="0 0 16.6 16.6" enable-background="new 0 0 16.6 16.6" xml:space="preserve">
<g id="_x38_KJYHs_1_">
	<g>
		<path fill="#173E34" d="M16.6,3c0,3.5,0,7.1,0,10.6c0,0.1,0,0.1,0,0.2c-0.1,0.2-0.1,0.4-0.2,0.7c-0.4,1.1-1.2,1.8-2.3,2.1
			c-0.2,0-0.3,0.1-0.5,0.1c-3.5,0-7.1,0-10.6,0c-0.2-0.1-0.5-0.1-0.7-0.2c-1.2-0.4-1.9-1.2-2.2-2.4C0.1,14,0,13.8,0,13.6
			C0,10.1,0,6.6,0,3c0.1-0.2,0.1-0.5,0.2-0.7c0.4-1.1,1.2-1.9,2.4-2.2C2.7,0.1,2.8,0,3,0c3.5,0,7.1,0,10.6,0c0.1,0,0.2,0,0.2,0.1
			c0.6,0.1,1.1,0.3,1.6,0.7c0.6,0.5,0.9,1.1,1.1,1.8C16.6,2.7,16.6,2.9,16.6,3z M9.2,5.8c0.2,0,0.5,0,0.7,0c0.6,0,0.9,0.3,0.9,0.9
			c0,0.3,0,0.6-0.1,0.8c-0.1,0.5-0.4,1-0.7,1.4C9.9,9.2,9.7,9.4,9.5,9.6C9.3,9.8,9,9.9,8.8,9.8C8.7,9.7,8.5,9.6,8.4,9.5
			C8.1,9.1,8,8.6,7.9,8.2C7.8,7.7,7.8,7.2,7.7,6.8C7.6,6.2,7.5,5.6,7.4,5.1C7.4,4.7,7.2,4.3,7,3.9C6.7,3.5,6.3,3.3,5.8,3.4
			c-0.2,0-0.4,0.1-0.6,0.2C4.7,3.8,4.3,4.1,3.9,4.5c-0.5,0.4-1,0.9-1.6,1.3C2.2,6,2.2,6,2.3,6.1c0,0,0,0.1,0.1,0.1
			C2.5,6.5,2.7,6.6,3,6.5c0.2,0,0.4-0.1,0.6-0.1c0.4-0.1,0.7,0,0.9,0.4C4.5,7,4.6,7.3,4.7,7.6c0.4,1.1,0.7,2.3,1,3.5
			c0.2,0.7,0.4,1.3,0.8,1.9c0.2,0.3,0.5,0.6,0.9,0.7c0.3,0.1,0.6,0,0.8-0.1c0.6-0.2,1.1-0.5,1.6-0.9c0.6-0.5,1.1-1,1.5-1.5
			c0.6-0.7,1.1-1.5,1.5-2.3c0.6-1,1-2,1.4-3.1c0.1-0.4,0.3-0.9,0.2-1.4c0-0.5-0.3-0.9-0.7-1.1C13.1,3,12.5,3,11.9,3.2
			c-1,0.3-1.8,1-2.4,2C9.4,5.3,9.3,5.6,9.2,5.8z"/>
	</g>
</g>
</svg>
