<svg version="1.1" id="Layer_1" xmlns="http://www.w3.org/2000/svg" xmlns:xlink="http://www.w3.org/1999/xlink" x="0px" y="0px"
	 viewBox="0 0 32.9 23.2" enable-background="new 0 0 32.9 23.2" xml:space="preserve">
<g>
	<path fill="#AF976D" d="M32.9,20.1c0,0.2-0.1,0.3-0.1,0.5c-0.4,1-1.1,1.7-2,2.2C30.5,22.9,30.2,23,30,23c-0.5,0.1-0.9,0.1-1.4,0.1
		c-7.4,0-14.8,0-22.3,0c-0.7,0-1.4,0-2.1,0c-0.4,0-0.9,0-1.3-0.1c-0.4-0.1-0.7-0.3-1-0.5c-1-0.6-1.6-1.4-1.9-2.5c0-0.2,0-16.8,0-17
		c0-0.1,0-0.2,0.1-0.3c0.4-1,1.1-1.8,2.1-2.3C2.5,0.3,2.7,0.2,3,0.1C3.5,0.1,4,0,4.6,0c8,0,16,0,23.9,0c0.2,0,0.3,0,0.5,0
		c0.4,0,0.8,0.1,1.2,0.2c0.3,0.1,0.6,0.3,0.9,0.4c1,0.6,1.6,1.4,1.9,2.5C32.9,3.3,33,19.9,32.9,20.1z M14,5.8
		c-0.2,0.1-0.2,0.2-0.2,0.4c0,3.2,0,6.5,0,9.7c0,0.4,0,0.7,0,1.1c0,0.2,0,0.3,0.2,0.3c0.5-0.4,1-0.7,1.5-1.1
		c1.8-1.4,3.7-2.8,5.5-4.2c0.2-0.1,0.4-0.2,0.4-0.6C19,9.6,16.5,7.7,14,5.8z"/>
</g>
</svg>
